<svg width="144" height="24" xmlns="http://www.w3.org/2000/svg" xmlns:xlink="http://www.w3.org/1999/xlink"><defs><path id="a" d="M0 0h9.424v6.52H0z"/></defs><g fill="none" fill-rule="evenodd"><path d="M93.082 4.853c1.675 0 3.165.425 4.441 1.264l.27.186V5.186h4.903v17.927h-4.903v-.965c-1.304.96-2.887 1.446-4.71 1.446a9.493 9.493 0 0 1-6.731-2.756 9.28 9.28 0 0 1-2.773-6.633c0-2.516.985-4.87 2.773-6.629 1.787-1.756 4.177-2.723 6.73-2.723Zm41.304 0c1.675 0 3.165.425 4.441 1.264l.27.187V5.186H144v17.927h-4.903v-.965c-1.304.96-2.887 1.446-4.71 1.446a9.493 9.493 0 0 1-6.731-2.756 9.28 9.28 0 0 1-2.772-6.633c0-2.516.984-4.87 2.772-6.629 1.787-1.756 4.177-2.723 6.73-2.723Zm-19.006 0c2.092 0 3.875.645 5.155 1.866 1.394 1.33 2.132 3.254 2.196 5.723l.005.357v10.314h-4.903V13.54c0-1.495-.362-2.578-1.076-3.22-.562-.504-1.34-.75-2.377-.75-1.04 0-1.819.239-2.378.73-.665.583-1.024 1.55-1.069 2.876l-.005.29v9.648h-4.903V5.186h4.903V6.31l.282-.2.3-.199c.883-.559 2.04-1.058 3.87-1.058Zm-51.362 0v4.716h-.175c-2.754 0-4.488.367-5.456 1.154-.767.624-1.105 1.52-1.14 3.056l-.003.278v9.056h-4.903V5.186h4.903v1.13c1.55-1.06 3.158-1.434 6.224-1.462l.55-.001Zm-58.533.333 3.437 11.167 4.01-11.167h4.244l3.938 11.165 3.472-11.165h5.523l-6.456 17.927h-4.762L15.057 12.26l-3.69 10.853H6.38L0 5.186h5.485ZM71.705 0l-.026 12.74 5.7-7.07h6.575l-7.228 8.72 7.29 8.66h-6.605l-5.605-7.597-.101 7.597h-4.918V0h4.918Zm62.681 9.569c-2.533 0-4.674 2.123-4.674 4.636 0 1.228.488 2.395 1.374 3.286a4.631 4.631 0 0 0 3.3 1.387 4.687 4.687 0 0 0 3.333-1.388 4.625 4.625 0 0 0 1.378-3.285c0-1.214-.49-2.37-1.378-3.253a4.701 4.701 0 0 0-3.333-1.383Zm-41.304 0c-2.533 0-4.674 2.123-4.674 4.636 0 1.228.488 2.395 1.374 3.286a4.631 4.631 0 0 0 3.3 1.387 4.687 4.687 0 0 0 3.333-1.388 4.625 4.625 0 0 0 1.378-3.285c0-1.214-.49-2.37-1.378-3.253a4.7 4.7 0 0 0-3.333-1.383Z" fill="#002D72"/><path d="M39.911 8.89a9.384 9.384 0 0 1 4.714-1.262 9.45 9.45 0 0 1 2.27.276 9.403 9.403 0 0 0-6.984-3.095 9.403 9.403 0 0 0-6.984 3.095 9.45 9.45 0 0 1 2.271-.276c1.717 0 3.327.46 4.713 1.261" fill="#FFC600"/><path d="M30.858 11.603a9.425 9.425 0 0 0-.373 2.63c0 4.422 3.047 8.132 7.155 9.148a9.387 9.387 0 0 1-2.44-6.244 9.446 9.446 0 0 1-4.342-5.534" fill="#FF4807"/><path d="m35.2 17.137-.002-.085a9.42 9.42 0 0 1 4.713-8.163 9.385 9.385 0 0 0-4.713-1.26c-.783 0-1.543.095-2.27.275a9.407 9.407 0 0 0-2.07 3.7 9.447 9.447 0 0 0 4.341 5.533" fill="#FF97B1"/><path d="M44.624 17.137a9.387 9.387 0 0 1-2.441 6.244c4.108-1.016 7.155-4.726 7.155-9.148 0-.913-.13-1.795-.373-2.63a9.447 9.447 0 0 1-4.341 5.534" fill="#0A78FF"/><path d="M44.625 7.628c-1.717 0-3.327.46-4.714 1.261a9.42 9.42 0 0 1 4.714 8.163l-.001.085a9.447 9.447 0 0 0 4.341-5.533 9.408 9.408 0 0 0-2.07-3.7 9.45 9.45 0 0 0-2.27-.276" fill="#00B450"/><g transform="translate(35.2 17.137)"><mask id="b" fill="#fff"><use xlink:href="#a"/></mask><path d="M4.712 1.26A9.384 9.384 0 0 1 0 0a9.388 9.388 0 0 0 2.441 6.244 9.445 9.445 0 0 0 4.542 0A9.387 9.387 0 0 0 9.424 0a9.384 9.384 0 0 1-4.712 1.26" fill="#BF17A7" mask="url(#b)"/></g><path d="m35.198 17.052.001.085a9.384 9.384 0 0 0 4.712 1.26 9.384 9.384 0 0 0 4.713-1.26v-.085a9.42 9.42 0 0 0-4.713-8.163 9.42 9.42 0 0 0-4.713 8.163" fill="#002D72"/></g></svg>